<?xml version="1.0" standalone="no"?><!DOCTYPE svg PUBLIC "-//W3C//DTD SVG 1.1//EN" "http://www.w3.org/Graphics/SVG/1.1/DTD/svg11.dtd"><svg t="1589949676683" class="icon" viewBox="0 0 1302 1024" version="1.1" xmlns="http://www.w3.org/2000/svg" p-id="7789" xmlns:xlink="http://www.w3.org/1999/xlink" width="254.296875" height="200"><defs><style type="text/css"></style></defs><path d="M782.461 510.697c0 68.788-64.358 127.935-133.146 127.935s-120.9-58.626-120.9-127.414 56.02-127.413 124.808-127.413 129.238 58.104 129.238 126.892z m-93.02-157.117c-28.14-87.809-22.929-255.61 12.247-305.116 36.478-49.506 131.061-20.845 132.624 27.62 2.606 72.956-51.85 216.785-144.87 277.496z m-73.738 313.193c24.753 121.68 31.006 267.594-12.247 310.847S479.951 995.6 475.261 941.142c-4.95-70.872 48.204-187.864 140.442-274.37z m2.866-299.384C647.491 261.341 646.97 98.492 605.28 45.598 562.027 2.345 486.986 29.443 474.22 73.218c-16.676 70.35 68.266 227.729 144.35 294.171z m77.907 295.736c-20.323 81.034-28.4 257.693 9.38 309.805 35.176 48.464 104.485 42.732 132.104-13.288 28.401-69.57-72.956-225.384-141.484-296.517zM509.394 470.57c-88.85 28.922-265.51 30.225-309.805-11.986s-7.556-118.294 37.52-128.716c67.485-11.465 196.723 52.893 272.285 140.702z m295.475 78.428c81.816-18.239 259.518-26.837 302.25 20.064 42.731 46.9 18.5 111.52-17.197 122.723C1019.31 718.624 870.53 631.336 804.869 549z m-30.485-153.99c16.154-77.908 69.83-219.913 132.625-249.617 77.386-34.133 133.667 32.83 117.252 84.682-28.662 88.07-151.386 141.484-249.877 164.935zM548.739 627.167c-10.422 88.07-106.308 238.152-164.674 256.391s-103.963-23.71-96.928-74.26c9.64-74.259 140.702-166.758 261.602-182.13z m-2.866-223.56C460.409 381.2 302.51 290.003 282.186 231.117c-15.112-47.943 39.345-95.886 92.76-87.81 73.477 15.895 155.293 160.506 170.927 260.3z m230.595 214.701c79.731 26.577 241.018 111.78 253.785 174.054s-41.95 114.907-95.886 95.105c-76.344-23.972-138.096-167.28-157.899-269.159z m-271.764-71.132c-82.337-16.937-265.25-27.88-307.2 20.323s-12.767 105.527 23.19 116.21c70.872 26.056 219.652-52.112 284.01-136.533z m304.074-77.908c98.752 32.31 265.51 26.317 309.024-19.02s13.288-128.196-50.289-130.28c-67.745-2.867-190.469 57.062-258.735 149.3z" p-id="7790" fill="#bb4c27"></path><path d="M406.994 941.142h2.345c-13.028 0.26-17.457 0.521-2.345 0z m2.345 0h1.564c5.472-0.26 5.993-0.521-1.564 0z" p-id="7791" fill="#bb4c27"></path></svg>